<?xml version="1.0" encoding="utf-8"?>

<!-- Uploaded to: SVG Repo, www.svgrepo.com, Generator: SVG Repo Mixer Tools -->
<svg fill="#ffffff" height="800px" width="800px" version="1.1" id="Icons" xmlns="http://www.w3.org/2000/svg" xmlns:xlink="http://www.w3.org/1999/xlink" 
	 viewBox="0 0 32 32" xml:space="preserve">
<path d="M32,17c0-0.1,0-0.2-0.1-0.3c0,0,0,0,0-0.1c0,0,0,0,0,0l-3-6C28.7,10.2,28.4,10,28,10h-7c-0.6,0-1,0.4-1,1v5h-2v-3V9
	c0-0.6-0.4-1-1-1h-5H7H2C1.4,8,1,8.4,1,9v4v3c-0.6,0-1,0.4-1,1v6c0,0.6,0.4,1,1,1h2c0,2.2,1.8,4,4,4s4-1.8,4-4h10h1c0,2.2,1.8,4,4,4
	s4-1.8,4-4h1c0.6,0,1-0.4,1-1L32,17C32,17,32,17,32,17z M22,12h5.4l2,4H22V12z M8,16v-2h3v2H8z M13,14h3v2h-3V14z M16,12h-3v-2h3V12
	z M11,12H8v-2h3V12z M3,10h3v2H3V10z M3,14h3v2H3V14z M7,26c-1.1,0-2-0.9-2-2s0.9-2,2-2s2,0.9,2,2S8.1,26,7,26z M26,26
	c-1.1,0-2-0.9-2-2s0.9-2,2-2s2,0.9,2,2S27.1,26,26,26z"/>
</svg>