<?xml version="1.0" encoding="iso-8859-1"?>
<!-- Uploaded to: SVG Repo, www.svgrepo.com, Generator: SVG Repo Mixer Tools -->
<svg version="1.1" id="Layer_1" xmlns="http://www.w3.org/2000/svg" xmlns:xlink="http://www.w3.org/1999/xlink" 
	 viewBox="0 0 512 512" xml:space="preserve">
<polygon style="fill:#F7D04A;" points="286.614,411.184 463.967,52.256 463.967,12.14 286.614,322.507 248.61,322.507 
	248.61,411.184 "/>
<g>
	<polygon style="fill:#F3B41B;" points="286.614,322.507 248.61,322.507 248.61,411.184 286.614,411.184 320.228,343.156 
		300.842,297.61 	"/>
	<polygon style="fill:#F3B41B;" points="463.967,52.256 463.967,12.14 406.318,113.025 424.252,132.631 	"/>
</g>
<circle style="fill:#F7D04A;" cx="470.301" cy="39.588" r="31.67"/>
<circle style="fill:#F3B41B;" cx="470.301" cy="39.588" r="12.668"/>
<path style="fill:#F7D04A;" d="M202.161,322.507v-70.73c0-26.237-21.269-47.505-47.505-47.505h-63.34
	c-8.745,0-15.835,7.09-15.835,15.835V436.52h211.134V322.507H202.161z"/>
<rect x="75.48" y="381.973" style="fill:#F3B41B;" width="211.134" height="54.543"/>
<g>
	<path style="fill:#808080;" d="M154.656,229.608h-53.839v92.899h76.008v-70.73C176.825,239.554,166.88,229.608,154.656,229.608z"/>
	<path style="fill:#808080;" d="M305.617,411.184H56.478c-25.654,0-46.449,20.796-46.449,46.449
		c0,25.654,20.796,46.449,46.449,46.449h249.138c25.654,0,46.449-20.796,46.449-46.449
		C352.066,431.979,331.27,411.184,305.617,411.184z"/>
</g>
<path style="fill:#CCCCCC;" d="M56.478,478.746c-11.642,0-21.113-9.471-21.113-21.113c0-11.642,9.471-21.113,21.113-21.113h249.138
	c11.642,0,21.113,9.471,21.113,21.113c0,11.642-9.471,21.113-21.113,21.113H56.478z"/>
<path style="fill:#B2B2B2;" d="M56.478,436.52c-11.642,0-21.113,9.471-21.113,21.113c0,11.642,9.471,21.113,21.113,21.113h125.768
	l-56.781-42.227H56.478z"/>
<path d="M501.971,217.468c-4.373,0-7.918,3.544-7.918,7.918c0,13.097-10.655,23.753-23.753,23.753s-23.753-10.656-23.753-23.753
	s10.655-23.753,23.753-23.753c4.373,0,7.918-3.544,7.918-7.918v-23.753h10.029c4.373,0,7.918-3.544,7.918-7.918
	s-3.545-7.918-7.918-7.918h-10.029v-75.75c18.048-3.678,31.67-19.672,31.67-38.791C509.889,17.758,492.13,0,470.301,0
	s-39.588,17.758-39.588,39.588c0,4.071,0.619,8,1.765,11.699L405.214,99c-1.973,3.452-1.012,7.979,2.204,10.322
	c3.768,2.745,9.235,1.574,11.544-2.467l22.791-39.884c1.315,1.37,2.727,2.646,4.225,3.816l-151.445,306.5v-52.678l109.953-192.418
	c2.169-3.796,0.851-8.633-2.946-10.802c-3.795-2.169-8.632-0.851-10.803,2.946L282.02,314.59h-71.942v-62.812
	c0-30.56-24.862-55.423-55.423-55.423h-63.34c-13.098,0-23.753,10.656-23.753,23.753v183.159H56.478
	c-29.978,0-54.367,24.389-54.367,54.367C2.111,487.611,26.5,512,56.478,512h173.13c4.373,0,7.918-3.544,7.918-7.918
	s-3.545-7.918-7.918-7.918H56.478c-21.246,0-38.532-17.286-38.532-38.532c0-21.246,17.286-38.532,38.532-38.532h249.138
	c21.246,0,38.532,17.286,38.532,38.532c0,21.246-17.286,38.532-38.532,38.532H263.39c-4.373,0-7.918,3.544-7.918,7.918
	S259.017,512,263.39,512h42.227c29.978,0,54.367-24.389,54.367-54.367c0-29.978-24.389-54.367-54.367-54.367h-6.258L460.152,77.85
	c0.737,0.195,1.479,0.375,2.232,0.528v75.75h-10.029c-4.373,0-7.918,3.544-7.918,7.918s3.545,7.918,7.918,7.918h10.029v16.632
	c-18.048,3.678-31.67,19.672-31.67,38.791c0,21.829,17.758,39.588,39.588,39.588s39.588-17.758,39.588-39.588
	C509.889,221.012,506.344,217.468,501.971,217.468z M83.398,220.107c0-4.366,3.551-7.918,7.918-7.918h63.34
	c21.829,0,39.588,17.758,39.588,39.588v70.73c0,4.374,3.545,7.918,7.918,7.918h76.536v72.841H83.398V220.107z M470.301,15.835
	c13.098,0,23.753,10.656,23.753,23.753S483.399,63.34,470.301,63.34s-23.753-10.656-23.753-23.753S457.203,15.835,470.301,15.835z"
	/>
<path d="M154.656,221.691h-53.839c-4.373,0-7.918,3.544-7.918,7.918v92.899c0,4.374,3.545,7.918,7.918,7.918h76.008
	c4.373,0,7.918-3.544,7.918-7.918v-70.73C184.742,235.187,171.246,221.691,154.656,221.691z M168.907,314.59h-60.173v-77.064h45.922
	c7.858,0,14.252,6.393,14.252,14.252V314.59z"/>
<path d="M214.829,353.65h46.449c4.373,0,7.918-3.544,7.918-7.918c0-4.374-3.545-7.918-7.918-7.918h-46.449
	c-4.373,0-7.918,3.544-7.918,7.918C206.911,350.106,210.456,353.65,214.829,353.65z"/>
<path d="M261.278,363.151h-46.449c-4.373,0-7.918,3.544-7.918,7.918s3.545,7.918,7.918,7.918h46.449
	c4.373,0,7.918-3.544,7.918-7.918S265.651,363.151,261.278,363.151z"/>
<path d="M126.153,337.814h-25.336c-4.373,0-7.918,3.544-7.918,7.918c0,4.374,3.545,7.918,7.918,7.918h25.336
	c4.373,0,7.918-3.544,7.918-7.918C134.07,341.358,130.525,337.814,126.153,337.814z"/>
<path d="M334.647,457.633c0-16.007-13.023-29.031-29.031-29.031H56.478c-16.008,0-29.031,13.024-29.031,29.031
	c0,16.007,13.023,29.031,29.031,29.031h249.138C321.625,486.664,334.647,473.64,334.647,457.633z M43.282,457.633
	c0-7.277,5.919-13.196,13.196-13.196h249.138c7.277,0,13.196,5.919,13.196,13.196c0,7.277-5.919,13.196-13.196,13.196H56.478
	C49.202,470.829,43.282,464.91,43.282,457.633z"/>
</svg>